<svg id="eiHNnhLF1tb1" xmlns="http://www.w3.org/2000/svg" xmlns:xlink="http://www.w3.org/1999/xlink" viewBox="0 0 1920 1080" shape-rendering="geometricPrecision" text-rendering="geometricPrecision"><line x1="2.235819" y1="-541.271849" x2="-2.23582" y2="541.271849" transform="translate(97.812803 541.271849)" fill="none" stroke="#293f51" stroke-width="3"/><line x1="0" y1="-541.271849" x2="0" y2="541.271849" transform="translate(200.660498 541.271849)" fill="none" stroke="#3f5787" stroke-width="3"/><line x1="0" y1="-541.271849" x2="0" y2="541.271849" transform="translate(299.036555 541.271849)" fill="none" stroke="#3f5787" stroke-width="3"/><line x1="2.235819" y1="-552.450946" x2="-2.235819" y2="552.450946" transform="translate(401.884251 552.450946)" fill="none" stroke="#3f5787" stroke-width="3"/><line x1="-2.235819" y1="-541.271849" x2="2.235819" y2="541.271849" transform="translate(504.731947 541.271849)" fill="none" stroke="#3f5787" stroke-width="3"/><line x1="-3.35373" y1="-541.271849" x2="3.353729" y2="541.271849" transform="translate(604.225913 541.271849)" fill="none" stroke="#3f5787" stroke-width="3"/><line x1="-2.235819" y1="-540" x2="2.23582" y2="540" transform="translate(703.719879 540)" fill="none" stroke="#3f5787" stroke-width="3"/><line x1="-96" y1="0" x2="96" y2="0" transform="translate(-1120.343267 1080)" fill="none" stroke="#3f5787" stroke-width="3"/><line x1="0" y1="-540" x2="0" y2="540" transform="translate(805.475573 540)" fill="none" stroke="#3f5787" stroke-width="3"/><line x1="0" y1="-540" x2="0" y2="540" transform="translate(903.645035 540)" fill="none" stroke="#3f5787" stroke-width="3"/><line x1="-1.181889" y1="-540" x2="1.181889" y2="540" transform="translate(1001.741829 540)" fill="none" stroke="#3f5787" stroke-width="3"/><line x1="-1.181889" y1="-540" x2="1.181889" y2="540" transform="translate(1103.384291 540)" fill="none" stroke="#3f5787" stroke-width="3"/><line x1="0" y1="-540" x2="0" y2="540" transform="translate(1203.844863 540)" fill="none" stroke="#3f5787" stroke-width="3"/><line x1="-1.18189" y1="-540" x2="1.181889" y2="540" transform="translate(1301.941658 540)" fill="none" stroke="#3f5787" stroke-width="3"/><line x1="2.363778" y1="-540" x2="-2.363779" y2="540" transform="translate(1397.674674 540)" fill="none" stroke="#3f5787" stroke-width="3"/><line x1="0" y1="-541.271849" x2="0" y2="541.271849" transform="translate(1501.680913 541.271849)" fill="none" stroke="#3f5787" stroke-width="3"/><line x1="1.181889" y1="-541.271849" x2="-1.181889" y2="541.271849" transform="translate(1602.141486 541.271849)" fill="none" stroke="#3f5787" stroke-width="3"/><line x1="0" y1="-540" x2="0" y2="540" transform="translate(1704.965836 540)" fill="none" stroke="#3f5787" stroke-width="3"/><line x1="1.181889" y1="-540" x2="-1.181889" y2="540" transform="translate(1798.335074 540)" fill="none" stroke="#3f5787" stroke-width="3"/><line x1="-960.179023" y1="2.710785" x2="960.179024" y2="-2.710785" transform="translate(960.179024 100.151733)" fill="none" stroke="#3f5787" stroke-width="3"/><line x1="-961.082618" y1="0" x2="961.082618" y2="0" transform="translate(961.082619 200.450788)" fill="none" stroke="#3f5787" stroke-width="3"/><line x1="-959.999999" y1="0.903595" x2="960" y2="-0.903595" transform="translate(960.000001 298.942653)" fill="none" stroke="#3f5787" stroke-width="3"/><line x1="-959.999999" y1="1.80719" x2="959.999999" y2="-1.80719" transform="translate(960.000001 397.434518)" fill="none" stroke="#3f5787" stroke-width="3"/><line x1="-960.179024" y1="0.903595" x2="960.179024" y2="-0.903595" transform="translate(960.179024 497.733573)" fill="none" stroke="#3f5787" stroke-width="3"/><line x1="-961.082617" y1="1.807191" x2="961.082618" y2="-1.807191" transform="translate(961.08262 596.225439)" fill="none" stroke="#3f5787" stroke-width="3"/><line x1="-961.082618" y1="0" x2="961.082618" y2="0" transform="translate(961.082621 697.428089)" fill="none" stroke="#3f5787" stroke-width="3"/><line x1="-961.082619" y1="1.80719" x2="961.082619" y2="-1.80719" transform="translate(961.082619 796.823549)" fill="none" stroke="#3f5787" stroke-width="3"/><line x1="-960.179024" y1="0" x2="960.179024" y2="0" transform="translate(960.179024 898.026199)" fill="none" stroke="#3f5787" stroke-width="3"/><line x1="-960" y1="1.80719" x2="960" y2="-1.80719" transform="translate(960 997.421659)" fill="none" stroke="#3f5787" stroke-width="3"/></svg>
